# xmcd
#
# Track frame offsets:
#	150
#	12805
#	25160
#	37790
#	47669
#	59973
#	73578
#	87232
#	100059
#	112066
#	124120
#	135925
#	145980
#	157534
#	169764
#	181994
#	197249
#	210153
#	221333
#	235261
#	247640
#	257844
#	270434
#	282964
#	292659
#	302771
#	315444
#	325299
#	338079
#
# Disc length: 4656 seconds
#
# Revision: 0
# Processed by: cddbd v1.5.1PL0 Copyright (c) Steve Scherf et al.
# Submitted via: EasyCDDAExtractor 4.6.9.1
#
DISCID=8a122e1d
DTITLE=Ernest Tubb - The Yellow Rose Of Texas - Disc 5 
DYEAR=1993
DGENRE=Country
TTITLE0=White Silver Sands
TTITLE1=Am I That Easy To Forget
TTITLE2=Everybody's Somebody's Fool
TTITLE3=Let The Little Girl Dance
TTITLE4=Candy Kisses
TTITLE5=It Happened When I Really Needed You
TTITLE6=Wondering
TTITLE7=Cold, Cold Heart
TTITLE8=Four Walls 
TTITLE9=Bouquet Of Roses
TTITLE10=Crazy Arms
TTITLE11=I Love You So Much It Hurts
TTITLE12=I Walk The Line
TTITLE13=Little Ole Band Of Gold
TTITLE14=Wabash Cannonball
TTITLE15=I'm Movin' On
TTITLE16=Tennessee Saturday Night
TTITLE17=Signed, Sealed And Delivered
TTITLE18=Thoughts Of A Fool
TTITLE19=Girl From Abilene
TTITLE20=The Same Thing As Me
TTITLE21=Christmas Is Just Another Day
TTITLE22=I Hate To See You Go
TTITLE23=I'm Sorry Now
TTITLE24=What Will You Tell Them
TTITLE25=It Is No Secret
TTITLE26=Don't Just Stand There
TTITLE27=Big Blue Diamonds
TTITLE28=I'll Just Have Another Cup Of Coffee
EXTD=
EXTT0=
EXTT1=
EXTT2=
EXTT3=
EXTT4=
EXTT5=
EXTT6=
EXTT7=
EXTT8=
EXTT9=
EXTT10=
EXTT11=
EXTT12=
EXTT13=
EXTT14=
EXTT15=
EXTT16=
EXTT17=
EXTT18=
EXTT19=
EXTT20=
EXTT21=
EXTT22=
EXTT23=
EXTT24=
EXTT25=
EXTT26=
EXTT27=
EXTT28=
PLAYORDER=
